<svg xmlns="http://www.w3.org/2000/svg" xmlns:xlink="http://www.w3.org/1999/xlink" viewBox="0 0 100 125" version="1.1" x="0px" y="0px"><title>Software</title><g stroke="none" stroke-width="1" fill="none" fill-rule="evenodd"><path d="M85.1167716,20 C86.9412374,20.0028145 88.6907472,20.7091444 89.9806883,21.9652134 C91.2713705,23.2206491 91.997176,24.923236 92,26.6988236 L92,69.4508345 C91.997108,71.226422 91.2713343,72.9290617 89.9806883,74.1844446 C88.690693,75.4405488 86.9412374,76.1469097 85.1167716,76.1496581 L15.8832284,76.1496581 C14.0587626,76.1468436 12.3092528,75.4405136 11.0193117,74.1844446 C9.72862954,72.9290089 9.002824,71.226422 9,69.4508345 L9,26.6988236 C9.00289196,24.923236 9.72866569,23.2205964 11.0193117,21.9652134 C12.309307,20.7091092 14.0587626,20.0027483 15.8832284,20 Z M85.1167716,24.9249951 L15.8832284,24.9249951 C14.8792299,24.9304481 14.0665799,25.7213709 14.0609315,26.6984718 L14.0609315,69.4504827 C14.0665347,70.4275835 14.8792299,71.2184623 15.8832284,71.2239594 L85.1167716,71.2239594 C86.1207701,71.2185063 86.9334201,70.4275835 86.9390685,69.4504827 L86.9390685,26.6984718 C86.9334653,25.7213709 86.1207701,24.9304921 85.1167716,24.9249951 Z M54.9873184,33.8812096 C56.0256052,34.2243642 56.5891211,35.3442436 56.2459666,36.3825303 L47.9222545,61.5676842 C47.5791,62.6059709 46.4592206,63.1694869 45.4209339,62.8263324 C44.3826472,62.4831778 43.8191312,61.3632984 44.1622857,60.3250117 L52.4859978,35.1398578 C52.8291524,34.1015711 53.9490317,33.5380551 54.9873184,33.8812096 Z M65.2755399,40.3181125 L71.9580858,46.9639859 C72.7364603,47.738101 72.7364603,48.9977162 71.9580858,49.7718312 L65.1434221,56.5490977 C64.36806,57.320206 63.1143981,57.3167576 62.3432844,56.541401 C61.5721815,55.7660335 61.5756299,54.5123716 62.350992,53.7412633 L67.7537322,48.3668207 L62.4831098,43.1259469 C61.7429915,42.3898889 61.7062077,41.2141489 62.3750573,40.4344202 L62.4754023,40.3258092 C63.246516,39.5504525 64.5001779,39.5470042 65.2755399,40.3181125 Z M35.350992,40.3181125 C36.126354,39.5470042 37.3800159,39.5504525 38.1511296,40.3258092 L38.2514746,40.4344202 C38.9203242,41.2141489 38.8835404,42.3898889 38.1434221,43.1259469 L32.8727828,48.3668376 L38.2755399,53.7412633 C39.050902,54.5123716 39.0543504,55.7660335 38.2832475,56.541401 C37.5121338,57.3167576 36.2584719,57.320206 35.4831098,56.5490977 L28.6684461,49.7718312 C27.8900716,48.9977162 27.8900716,47.738101 28.6684461,46.9639859 Z M65.6827946,81.0746531 L35.3172054,81.0746531 C33.9199365,81.0746531 32.7867397,82.176805 32.7867397,83.5373266 C32.7867397,84.8971621 33.9199365,86 35.3172054,86 L65.6827946,86 C67.0800635,86 68.2132603,84.8971621 68.2132603,83.5373266 C68.2132603,82.176805 67.0800635,81.0746531 65.6827946,81.0746531 Z" fill="#000000" fill-rule="nonzero"/></g><text x="0" y="115" fill="#000000" font-size="5px" font-weight="bold" font-family="'Helvetica Neue', Helvetica, Arial-Unicode, Arial, Sans-serif">Created by Dot9</text><text x="0" y="120" fill="#000000" font-size="5px" font-weight="bold" font-family="'Helvetica Neue', Helvetica, Arial-Unicode, Arial, Sans-serif">from the Noun Project</text></svg>